<?xml version="1.0" encoding="UTF-8" standalone="no"?>
<!-- Uploaded to: SVG Repo, www.svgrepo.com, Generator: SVG Repo Mixer Tools -->

<svg
   height="32"
   width="32"
   version="1.1"
   viewBox="0 0 21.013 21.013"
   fill="none"
   xml:space="preserve"
   xmlns="http://www.w3.org/2000/svg"
   xmlns:svg="http://www.w3.org/2000/svg"> />
   <style>
      #r {
         fill: #333;
      }
      @media (prefers-color-scheme: dark) {
         #r {
            fill: #fff;
         }
      }
   </style>

<path id="r"
   d="M 1.6044472 0.38988965 L 1.6044472 17.646354 L 4.9197917 20.62311 L 8.5750072 20.62311 L 8.5750072 15.062053 L 9.5138204 15.062053 L 14.343835 20.62311 L 19.408553 20.62311 L 13.978313 14.357943 C 16.301879 13.418074 17.920816 11.25048 17.920816 7.7259712 C 17.920816 2.7916586 14.55307 0.38988965 10.584734 0.38988965 L 1.6044472 0.38988965 z M 2.3085571 1.0952821 L 10.559084 1.0952821 C 12.569359 1.0952821 14.239913 1.7472278 15.414749 2.8959567 C 16.53737 4.0969005 17.033304 5.7674369 17.033304 7.3861003 C 17.033304 9.3180534 16.380973 11.380693 14.814524 12.581636 C 15.911038 11.563445 16.589548 10.023077 16.589548 8.0389089 C 16.589548 6.3419231 16.066769 4.6453672 14.865825 3.4705309 C 15.831802 4.5670448 16.224026 6.002773 16.224026 7.4386841 C 16.224026 9.2400998 15.624015 10.937113 14.292534 11.981411 C 15.36294 10.937113 15.780271 9.318632 15.780271 8.0132583 C 15.780271 6.4729173 15.336921 4.9846933 14.214299 3.9142869 C 15.075846 4.8802634 15.414749 6.1068341 15.414749 7.3861003 C 15.414749 9.0308711 14.919079 10.623437 13.561491 11.563306 C 14.60579 10.649545 14.970993 9.3181752 14.970993 8.0389089 C 14.970993 6.7074278 14.579225 5.2978239 13.587141 4.4362773 C 12.960562 3.8619129 11.968678 3.1832438 9.9845096 3.1832438 L 4.7363897 3.1832438 L 4.7363897 9.4753445 L 9.7754569 9.4753445 C 11.028616 9.4753445 11.681299 8.718512 11.681299 7.7003206 L 11.681299 7.5438517 C 11.602977 6.4734453 10.950486 5.7684589 9.9845096 5.716244 L 8.1569019 5.6380095 L 9.9845096 5.5854257 C 11.420421 5.5332108 12.334389 6.3166244 12.464926 7.7003206 C 12.595463 5.9772273 11.342555 5.0630664 9.9588589 5.0108515 L 7.3476243 4.9326171 L 9.9588589 4.8800333 C 11.681952 4.8539258 13.143666 5.5847895 13.274203 7.6733874 C 13.326418 5.3237147 11.681127 4.357674 9.9319258 4.305459 L 6.5383468 4.2272246 L 9.9319258 4.1759233 C 13.169253 4.1237084 14.005159 6.0289854 14.083481 7.7259712 C 14.083481 9.9451065 12.93395 11.328339 10.610385 11.563306 L 15.414749 17.124364 L 12.255873 17.124364 L 7.4515094 11.563306 L 4.7363897 11.563306 L 4.7363897 17.124364 L 2.3085571 17.124364 L 2.3085571 1.0952821 z M 5.8598875 4.828732 L 5.9111888 8.769952 L 5.8329543 8.769952 L 5.8598875 4.828732 z M 6.669165 5.5584926 L 6.7204663 8.769952 L 6.6422319 8.769952 L 6.669165 5.5584926 z M 7.4784426 6.263885 L 7.5297438 8.769952 L 7.4515094 8.769952 L 7.4784426 6.263885 z M 8.5750072 6.6819904 L 9.8536913 6.6819904 C 10.584701 6.6819904 11.00284 7.0737412 11.00284 7.7003206 C 11.00284 8.1963626 10.741802 8.769952 9.8280407 8.769952 L 8.5750072 8.769952 L 8.5750072 6.6819904 z M 5.8598875 13.208794 L 5.9637726 17.777172 L 5.6764855 17.516818 L 5.8598875 13.208794 z M 6.669165 13.939837 L 6.7730501 18.508216 L 6.4601124 18.220928 L 6.669165 13.939837 z M 7.4784426 14.643947 L 7.6349114 19.266192 L 7.2950405 18.978905 L 7.4784426 14.643947 z " />
</svg>